<svg xmlns="http://www.w3.org/2000/svg" viewBox="0 0 128 128" role="img" aria-labelledby="title desc">
  <title id="title">Sober Bar favicon</title>
  <desc id="desc">An Art Deco gold sunburst with SB initials on a dark background.</desc>
  <rect width="128" height="128" rx="28" fill="#0a0a0a"/>
  <g stroke="#C8963E" stroke-width="2" stroke-linecap="round" opacity="0.9">
    <path d="M64 12v18"/><path d="M64 98v18"/><path d="M12 64h18"/><path d="M98 64h18"/>
    <path d="M28.2 28.2l12.7 12.7"/><path d="M87.1 87.1l12.7 12.7"/>
    <path d="M99.8 28.2L87.1 40.9"/><path d="M40.9 87.1L28.2 99.8"/>
    <path d="M64 18l6 20-6-7-6 7 6-20Z" fill="#D4A44A" stroke="none"/>
  </g>
  <circle cx="64" cy="64" r="30" fill="none" stroke="#E8C872" stroke-width="1.5" opacity="0.85"/>
  <circle cx="64" cy="64" r="22" fill="none" stroke="#C8963E" stroke-width="1" opacity="0.7"/>
  <path d="M49 82V46h19c9.2 0 14.1 4.1 14.1 10.4 0 5-3.1 8.2-8.1 9.2 6.2 0.8 10.2 4.5 10.2 10.1 0 7.2-5.7 12.3-16.7 12.3H49Zm10.7-22.2h7.2c3.5 0 5.2-1.6 5.2-4.2 0-2.6-1.8-4.2-5.2-4.2h-7.2v8.4Zm0 16h8.2c4 0 5.9-1.8 5.9-4.8s-2-4.9-5.9-4.9h-8.2v9.7Z" fill="#E8C872"/>
</svg>
